<svg id="visual" viewBox="0 0 2000 600" width="2000" height="600" xmlns="http://www.w3.org/2000/svg" xmlns:xlink="http://www.w3.org/1999/xlink" version="1.1"><rect x="0" y="0" width="2000" height="600" fill="#001220"></rect><path d="M0 378L25.7 388.5C51.3 399 102.7 420 154 399.8C205.3 379.7 256.7 318.3 308 294.8C359.3 271.3 410.7 285.7 461.8 279.3C513 273 564 246 615.2 268C666.3 290 717.7 361 769 360C820.3 359 871.7 286 923 280.3C974.3 274.7 1025.7 336.3 1077 370.8C1128.3 405.3 1179.7 412.7 1231 399.7C1282.3 386.7 1333.7 353.3 1384.8 353.7C1436 354 1487 388 1538.2 397.5C1589.3 407 1640.7 392 1692 392.5C1743.3 393 1794.7 409 1846 414.7C1897.3 420.3 1948.7 415.7 1974.3 413.3L2000 411L2000 0L1974.3 0C1948.7 0 1897.3 0 1846 0C1794.7 0 1743.3 0 1692 0C1640.7 0 1589.3 0 1538.2 0C1487 0 1436 0 1384.8 0C1333.7 0 1282.3 0 1231 0C1179.7 0 1128.3 0 1077 0C1025.7 0 974.3 0 923 0C871.7 0 820.3 0 769 0C717.7 0 666.3 0 615.2 0C564 0 513 0 461.8 0C410.7 0 359.3 0 308 0C256.7 0 205.3 0 154 0C102.7 0 51.3 0 25.7 0L0 0Z" fill="#ff6f61"></path><path d="M0 349L25.7 344.7C51.3 340.3 102.7 331.7 154 329.5C205.3 327.3 256.7 331.7 308 330.3C359.3 329 410.7 322 461.8 309.3C513 296.7 564 278.3 615.2 255.5C666.3 232.7 717.7 205.3 769 205.8C820.3 206.3 871.7 234.7 923 264.2C974.3 293.7 1025.7 324.3 1077 326.8C1128.3 329.3 1179.7 303.7 1231 298.3C1282.3 293 1333.7 308 1384.8 292.8C1436 277.7 1487 232.3 1538.2 224.3C1589.3 216.3 1640.7 245.7 1692 258.3C1743.3 271 1794.7 267 1846 263.7C1897.3 260.3 1948.7 257.7 1974.3 256.3L2000 255L2000 0L1974.3 0C1948.7 0 1897.3 0 1846 0C1794.7 0 1743.3 0 1692 0C1640.7 0 1589.3 0 1538.2 0C1487 0 1436 0 1384.8 0C1333.7 0 1282.3 0 1231 0C1179.7 0 1128.3 0 1077 0C1025.7 0 974.3 0 923 0C871.7 0 820.3 0 769 0C717.7 0 666.3 0 615.2 0C564 0 513 0 461.8 0C410.7 0 359.3 0 308 0C256.7 0 205.3 0 154 0C102.7 0 51.3 0 25.7 0L0 0Z" fill="#ff4e70"></path><path d="M0 145L25.7 151.2C51.3 157.3 102.7 169.7 154 174.7C205.3 179.7 256.7 177.3 308 185C359.3 192.7 410.7 210.3 461.8 230C513 249.7 564 271.3 615.2 255.2C666.3 239 717.7 185 769 177.8C820.3 170.7 871.7 210.3 923 235.3C974.3 260.3 1025.7 270.7 1077 263.7C1128.3 256.7 1179.7 232.3 1231 218.2C1282.3 204 1333.7 200 1384.8 215.3C1436 230.7 1487 265.3 1538.2 281.2C1589.3 297 1640.7 294 1692 276.2C1743.3 258.3 1794.7 225.7 1846 210.3C1897.3 195 1948.7 197 1974.3 198L2000 199L2000 0L1974.3 0C1948.7 0 1897.3 0 1846 0C1794.7 0 1743.3 0 1692 0C1640.7 0 1589.3 0 1538.2 0C1487 0 1436 0 1384.8 0C1333.7 0 1282.3 0 1231 0C1179.7 0 1128.3 0 1077 0C1025.7 0 974.3 0 923 0C871.7 0 820.3 0 769 0C717.7 0 666.3 0 615.2 0C564 0 513 0 461.8 0C410.7 0 359.3 0 308 0C256.7 0 205.3 0 154 0C102.7 0 51.3 0 25.7 0L0 0Z" fill="#ff2587"></path><path d="M0 204L25.7 211.8C51.3 219.7 102.7 235.3 154 232.3C205.3 229.3 256.7 207.7 308 205.7C359.3 203.7 410.7 221.3 461.8 207.7C513 194 564 149 615.2 147.7C666.3 146.3 717.7 188.7 769 189.8C820.3 191 871.7 151 923 152.5C974.3 154 1025.7 197 1077 216.2C1128.3 235.3 1179.7 230.7 1231 224.5C1282.3 218.3 1333.7 210.7 1384.8 194.2C1436 177.7 1487 152.3 1538.2 159.8C1589.3 167.3 1640.7 207.7 1692 210C1743.3 212.3 1794.7 176.7 1846 161.8C1897.3 147 1948.7 153 1974.3 156L2000 159L2000 0L1974.3 0C1948.7 0 1897.3 0 1846 0C1794.7 0 1743.3 0 1692 0C1640.7 0 1589.3 0 1538.2 0C1487 0 1436 0 1384.8 0C1333.7 0 1282.3 0 1231 0C1179.7 0 1128.3 0 1077 0C1025.7 0 974.3 0 923 0C871.7 0 820.3 0 769 0C717.7 0 666.3 0 615.2 0C564 0 513 0 461.8 0C410.7 0 359.3 0 308 0C256.7 0 205.3 0 154 0C102.7 0 51.3 0 25.7 0L0 0Z" fill="#f000a6"></path><path d="M0 82L25.7 77C51.3 72 102.7 62 154 76C205.3 90 256.7 128 308 128.8C359.3 129.7 410.7 93.3 461.8 89.5C513 85.7 564 114.3 615.2 119.5C666.3 124.7 717.7 106.3 769 91.2C820.3 76 871.7 64 923 58.5C974.3 53 1025.7 54 1077 70.3C1128.3 86.7 1179.7 118.3 1231 130.2C1282.3 142 1333.7 134 1384.8 119.7C1436 105.3 1487 84.7 1538.2 91.3C1589.3 98 1640.7 132 1692 144C1743.3 156 1794.7 146 1846 132.8C1897.3 119.7 1948.7 103.3 1974.3 95.2L2000 87L2000 0L1974.3 0C1948.7 0 1897.3 0 1846 0C1794.7 0 1743.3 0 1692 0C1640.7 0 1589.3 0 1538.2 0C1487 0 1436 0 1384.8 0C1333.7 0 1282.3 0 1231 0C1179.7 0 1128.3 0 1077 0C1025.7 0 974.3 0 923 0C871.7 0 820.3 0 769 0C717.7 0 666.3 0 615.2 0C564 0 513 0 461.8 0C410.7 0 359.3 0 308 0C256.7 0 205.3 0 154 0C102.7 0 51.3 0 25.7 0L0 0Z" fill="#c800d0"></path><path d="M0 35L25.7 34C51.3 33 102.7 31 154 44.5C205.3 58 256.7 87 308 89.8C359.3 92.7 410.7 69.3 461.8 65C513 60.7 564 75.3 615.2 70.7C666.3 66 717.7 42 769 29.3C820.3 16.7 871.7 15.3 923 27C974.3 38.7 1025.7 63.3 1077 71C1128.3 78.7 1179.7 69.3 1231 66.8C1282.3 64.3 1333.7 68.7 1384.8 68.2C1436 67.7 1487 62.3 1538.2 52.8C1589.3 43.3 1640.7 29.7 1692 38.3C1743.3 47 1794.7 78 1846 85C1897.3 92 1948.7 75 1974.3 66.5L2000 58L2000 0L1974.3 0C1948.7 0 1897.3 0 1846 0C1794.7 0 1743.3 0 1692 0C1640.7 0 1589.3 0 1538.2 0C1487 0 1436 0 1384.8 0C1333.7 0 1282.3 0 1231 0C1179.7 0 1128.3 0 1077 0C1025.7 0 974.3 0 923 0C871.7 0 820.3 0 769 0C717.7 0 666.3 0 615.2 0C564 0 513 0 461.8 0C410.7 0 359.3 0 308 0C256.7 0 205.3 0 154 0C102.7 0 51.3 0 25.7 0L0 0Z" fill="#6600ff"></path></svg>