<svg id="visual" viewBox="0 0 2000 600" width="2000" height="600" xmlns="http://www.w3.org/2000/svg" xmlns:xlink="http://www.w3.org/1999/xlink" version="1.1"><rect x="0" y="0" width="2000" height="600" fill="#001220"></rect><path d="M0 251L25.7 261.2C51.3 271.3 102.7 291.7 154 302.3C205.3 313 256.7 314 308 309.5C359.3 305 410.7 295 461.8 297.2C513 299.3 564 313.7 615.2 331.8C666.3 350 717.7 372 769 376.5C820.3 381 871.7 368 923 362.2C974.3 356.3 1025.7 357.7 1077 358.3C1128.3 359 1179.7 359 1231 362.2C1282.3 365.3 1333.7 371.7 1384.8 366C1436 360.3 1487 342.7 1538.2 319C1589.3 295.3 1640.7 265.7 1692 257.2C1743.3 248.7 1794.7 261.3 1846 268.7C1897.3 276 1948.7 278 1974.3 279L2000 280L2000 601L1974.3 601C1948.7 601 1897.3 601 1846 601C1794.7 601 1743.3 601 1692 601C1640.7 601 1589.3 601 1538.2 601C1487 601 1436 601 1384.8 601C1333.7 601 1282.3 601 1231 601C1179.7 601 1128.3 601 1077 601C1025.7 601 974.3 601 923 601C871.7 601 820.3 601 769 601C717.7 601 666.3 601 615.2 601C564 601 513 601 461.8 601C410.7 601 359.3 601 308 601C256.7 601 205.3 601 154 601C102.7 601 51.3 601 25.7 601L0 601Z" fill="#ff6f61"></path><path d="M0 441L25.7 412.8C51.3 384.7 102.7 328.3 154 310.3C205.3 292.3 256.7 312.7 308 330.5C359.3 348.3 410.7 363.7 461.8 366.3C513 369 564 359 615.2 344.2C666.3 329.3 717.7 309.7 769 313.5C820.3 317.3 871.7 344.7 923 367C974.3 389.3 1025.7 406.7 1077 394.5C1128.3 382.3 1179.7 340.7 1231 314.5C1282.3 288.3 1333.7 277.7 1384.8 283.7C1436 289.7 1487 312.3 1538.2 324C1589.3 335.7 1640.7 336.3 1692 330C1743.3 323.7 1794.7 310.3 1846 312.2C1897.3 314 1948.7 331 1974.3 339.5L2000 348L2000 601L1974.3 601C1948.7 601 1897.3 601 1846 601C1794.7 601 1743.3 601 1692 601C1640.7 601 1589.3 601 1538.2 601C1487 601 1436 601 1384.8 601C1333.7 601 1282.3 601 1231 601C1179.7 601 1128.3 601 1077 601C1025.7 601 974.3 601 923 601C871.7 601 820.3 601 769 601C717.7 601 666.3 601 615.2 601C564 601 513 601 461.8 601C410.7 601 359.3 601 308 601C256.7 601 205.3 601 154 601C102.7 601 51.3 601 25.7 601L0 601Z" fill="#ff4e70"></path><path d="M0 353L25.7 348.5C51.3 344 102.7 335 154 350.7C205.3 366.3 256.7 406.7 308 431.2C359.3 455.7 410.7 464.3 461.8 467C513 469.7 564 466.3 615.2 442.3C666.3 418.3 717.7 373.7 769 375.2C820.3 376.7 871.7 424.3 923 427.8C974.3 431.3 1025.7 390.7 1077 365.8C1128.3 341 1179.7 332 1231 349.7C1282.3 367.3 1333.7 411.7 1384.8 435.8C1436 460 1487 464 1538.2 459.8C1589.3 455.7 1640.7 443.3 1692 428.7C1743.3 414 1794.7 397 1846 401.3C1897.3 405.7 1948.7 431.3 1974.3 444.2L2000 457L2000 601L1974.3 601C1948.7 601 1897.3 601 1846 601C1794.7 601 1743.3 601 1692 601C1640.7 601 1589.3 601 1538.2 601C1487 601 1436 601 1384.8 601C1333.7 601 1282.3 601 1231 601C1179.7 601 1128.3 601 1077 601C1025.7 601 974.3 601 923 601C871.7 601 820.3 601 769 601C717.7 601 666.3 601 615.2 601C564 601 513 601 461.8 601C410.7 601 359.3 601 308 601C256.7 601 205.3 601 154 601C102.7 601 51.3 601 25.7 601L0 601Z" fill="#ff2587"></path><path d="M0 416L25.7 412.8C51.3 409.7 102.7 403.3 154 403.2C205.3 403 256.7 409 308 428.7C359.3 448.3 410.7 481.7 461.8 498.5C513 515.3 564 515.7 615.2 495.8C666.3 476 717.7 436 769 423.3C820.3 410.7 871.7 425.3 923 445.3C974.3 465.3 1025.7 490.7 1077 492.2C1128.3 493.7 1179.7 471.3 1231 452.3C1282.3 433.3 1333.7 417.7 1384.8 410.5C1436 403.3 1487 404.7 1538.2 410C1589.3 415.3 1640.7 424.7 1692 427.3C1743.3 430 1794.7 426 1846 430.7C1897.3 435.3 1948.7 448.7 1974.3 455.3L2000 462L2000 601L1974.3 601C1948.7 601 1897.3 601 1846 601C1794.7 601 1743.3 601 1692 601C1640.7 601 1589.3 601 1538.2 601C1487 601 1436 601 1384.8 601C1333.7 601 1282.3 601 1231 601C1179.7 601 1128.3 601 1077 601C1025.7 601 974.3 601 923 601C871.7 601 820.3 601 769 601C717.7 601 666.3 601 615.2 601C564 601 513 601 461.8 601C410.7 601 359.3 601 308 601C256.7 601 205.3 601 154 601C102.7 601 51.3 601 25.7 601L0 601Z" fill="#f000a6"></path><path d="M0 552L25.7 536.7C51.3 521.3 102.7 490.7 154 484.7C205.3 478.7 256.7 497.3 308 502.3C359.3 507.3 410.7 498.7 461.8 502.7C513 506.7 564 523.3 615.2 531.7C666.3 540 717.7 540 769 532.2C820.3 524.3 871.7 508.7 923 495.8C974.3 483 1025.7 473 1077 472C1128.3 471 1179.7 479 1231 487.5C1282.3 496 1333.7 505 1384.8 508C1436 511 1487 508 1538.2 508.7C1589.3 509.3 1640.7 513.7 1692 513.8C1743.3 514 1794.7 510 1846 498C1897.3 486 1948.7 466 1974.3 456L2000 446L2000 601L1974.3 601C1948.7 601 1897.3 601 1846 601C1794.7 601 1743.3 601 1692 601C1640.7 601 1589.3 601 1538.2 601C1487 601 1436 601 1384.8 601C1333.7 601 1282.3 601 1231 601C1179.7 601 1128.3 601 1077 601C1025.7 601 974.3 601 923 601C871.7 601 820.3 601 769 601C717.7 601 666.3 601 615.2 601C564 601 513 601 461.8 601C410.7 601 359.3 601 308 601C256.7 601 205.3 601 154 601C102.7 601 51.3 601 25.7 601L0 601Z" fill="#c800d0"></path><path d="M0 551L25.7 552C51.3 553 102.7 555 154 551.7C205.3 548.3 256.7 539.7 308 535.2C359.3 530.7 410.7 530.3 461.8 531.8C513 533.3 564 536.7 615.2 531.7C666.3 526.7 717.7 513.3 769 519.3C820.3 525.3 871.7 550.7 923 561.3C974.3 572 1025.7 568 1077 555C1128.3 542 1179.7 520 1231 515.3C1282.3 510.7 1333.7 523.3 1384.8 529C1436 534.7 1487 533.3 1538.2 541.3C1589.3 549.3 1640.7 566.7 1692 571C1743.3 575.3 1794.7 566.7 1846 553.3C1897.3 540 1948.7 522 1974.3 513L2000 504L2000 601L1974.3 601C1948.7 601 1897.3 601 1846 601C1794.7 601 1743.3 601 1692 601C1640.7 601 1589.3 601 1538.2 601C1487 601 1436 601 1384.8 601C1333.7 601 1282.3 601 1231 601C1179.7 601 1128.3 601 1077 601C1025.7 601 974.3 601 923 601C871.7 601 820.3 601 769 601C717.7 601 666.3 601 615.2 601C564 601 513 601 461.8 601C410.7 601 359.3 601 308 601C256.7 601 205.3 601 154 601C102.7 601 51.3 601 25.7 601L0 601Z" fill="#6600ff"></path></svg>